<svg version="1.1" xmlns="http://www.w3.org/2000/svg" xmlns:xlink="http://www.w3.org/1999/xlink" width="255.32568359375" height="77"><defs/><g><text fill="#eeeeee" stroke="none" font-family="Arial" font-size="24px" font-style="normal" font-weight="normal" text-decoration="none" x="0" y="0">UNREGISTERED</text><text fill="#eeeeee" stroke="none" font-family="Arial" font-size="24px" font-style="normal" font-weight="normal" text-decoration="none" x="0" y="30">UNREGISTERED</text><text fill="#eeeeee" stroke="none" font-family="Arial" font-size="24px" font-style="normal" font-weight="normal" text-decoration="none" x="0" y="60">UNREGISTERED</text><text fill="#eeeeee" stroke="none" font-family="Arial" font-size="24px" font-style="normal" font-weight="normal" text-decoration="none" x="200" y="0">UNREGISTERED</text><text fill="#eeeeee" stroke="none" font-family="Arial" font-size="24px" font-style="normal" font-weight="normal" text-decoration="none" x="200" y="30">UNREGISTERED</text><text fill="#eeeeee" stroke="none" font-family="Arial" font-size="24px" font-style="normal" font-weight="normal" text-decoration="none" x="200" y="60">UNREGISTERED</text><g transform="translate(-278,-142) scale(1,1)"><rect fill="#C0C0C0" stroke="none" x="295" y="159" width="235.32568359375" height="57" opacity="0.2"/></g><g transform="translate(-278,-142) scale(1,1)"><rect fill="#ffffff" stroke="none" x="288" y="152" width="235.32568359375" height="57"/></g><g transform="translate(-278,-142) scale(1,1)"><path fill="none" stroke="#000000" d="M 288 152 L 523.32568359375 152 L 523.32568359375 209 L 288 209 L 288 152 Z Z" stroke-miterlimit="10"/></g><g transform="translate(-278,-142) scale(1,1)"><path fill="none" stroke="#000000" d="M 288 177 L 523.32568359375 177" stroke-miterlimit="10"/></g><g transform="translate(-278,-142) scale(1,1)"><path fill="none" stroke="#000000" d="M 288 200 L 523.32568359375 200" stroke-miterlimit="10"/></g><g transform="translate(-278,-142) scale(1,1)"><g><path fill="none" stroke="none"/><text fill="#000000" stroke="none" font-family="Arial" font-size="13px" font-style="normal" font-weight="bold" text-decoration="none" x="391.209228515625" y="169.471923828125">User</text></g></g><g transform="translate(-278,-142) scale(1,1)"><g><path fill="none" stroke="none"/><text fill="#000000" stroke="none" font-family="Arial" font-size="13px" font-style="normal" font-weight="normal" text-decoration="none" x="293" y="192.7099609375">+uid: string {id, readOnly, unique}</text></g></g></g></svg>