<svg version="1.1" xmlns="http://www.w3.org/2000/svg" xmlns:xlink="http://www.w3.org/1999/xlink" width="660" height="356"><defs/><g><text fill="#eeeeee" stroke="none" font-family="Arial" font-size="24px" font-style="normal" font-weight="normal" text-decoration="none" x="0" y="0">UNREGISTERED</text><text fill="#eeeeee" stroke="none" font-family="Arial" font-size="24px" font-style="normal" font-weight="normal" text-decoration="none" x="0" y="30">UNREGISTERED</text><text fill="#eeeeee" stroke="none" font-family="Arial" font-size="24px" font-style="normal" font-weight="normal" text-decoration="none" x="0" y="60">UNREGISTERED</text><text fill="#eeeeee" stroke="none" font-family="Arial" font-size="24px" font-style="normal" font-weight="normal" text-decoration="none" x="0" y="90">UNREGISTERED</text><text fill="#eeeeee" stroke="none" font-family="Arial" font-size="24px" font-style="normal" font-weight="normal" text-decoration="none" x="0" y="120">UNREGISTERED</text><text fill="#eeeeee" stroke="none" font-family="Arial" font-size="24px" font-style="normal" font-weight="normal" text-decoration="none" x="0" y="150">UNREGISTERED</text><text fill="#eeeeee" stroke="none" font-family="Arial" font-size="24px" font-style="normal" font-weight="normal" text-decoration="none" x="0" y="180">UNREGISTERED</text><text fill="#eeeeee" stroke="none" font-family="Arial" font-size="24px" font-style="normal" font-weight="normal" text-decoration="none" x="0" y="210">UNREGISTERED</text><text fill="#eeeeee" stroke="none" font-family="Arial" font-size="24px" font-style="normal" font-weight="normal" text-decoration="none" x="0" y="240">UNREGISTERED</text><text fill="#eeeeee" stroke="none" font-family="Arial" font-size="24px" font-style="normal" font-weight="normal" text-decoration="none" x="0" y="270">UNREGISTERED</text><text fill="#eeeeee" stroke="none" font-family="Arial" font-size="24px" font-style="normal" font-weight="normal" text-decoration="none" x="0" y="300">UNREGISTERED</text><text fill="#eeeeee" stroke="none" font-family="Arial" font-size="24px" font-style="normal" font-weight="normal" text-decoration="none" x="0" y="330">UNREGISTERED</text><text fill="#eeeeee" stroke="none" font-family="Arial" font-size="24px" font-style="normal" font-weight="normal" text-decoration="none" x="200" y="0">UNREGISTERED</text><text fill="#eeeeee" stroke="none" font-family="Arial" font-size="24px" font-style="normal" font-weight="normal" text-decoration="none" x="200" y="30">UNREGISTERED</text><text fill="#eeeeee" stroke="none" font-family="Arial" font-size="24px" font-style="normal" font-weight="normal" text-decoration="none" x="200" y="60">UNREGISTERED</text><text fill="#eeeeee" stroke="none" font-family="Arial" font-size="24px" font-style="normal" font-weight="normal" text-decoration="none" x="200" y="90">UNREGISTERED</text><text fill="#eeeeee" stroke="none" font-family="Arial" font-size="24px" font-style="normal" font-weight="normal" text-decoration="none" x="200" y="120">UNREGISTERED</text><text fill="#eeeeee" stroke="none" font-family="Arial" font-size="24px" font-style="normal" font-weight="normal" text-decoration="none" x="200" y="150">UNREGISTERED</text><text fill="#eeeeee" stroke="none" font-family="Arial" font-size="24px" font-style="normal" font-weight="normal" text-decoration="none" x="200" y="180">UNREGISTERED</text><text fill="#eeeeee" stroke="none" font-family="Arial" font-size="24px" font-style="normal" font-weight="normal" text-decoration="none" x="200" y="210">UNREGISTERED</text><text fill="#eeeeee" stroke="none" font-family="Arial" font-size="24px" font-style="normal" font-weight="normal" text-decoration="none" x="200" y="240">UNREGISTERED</text><text fill="#eeeeee" stroke="none" font-family="Arial" font-size="24px" font-style="normal" font-weight="normal" text-decoration="none" x="200" y="270">UNREGISTERED</text><text fill="#eeeeee" stroke="none" font-family="Arial" font-size="24px" font-style="normal" font-weight="normal" text-decoration="none" x="200" y="300">UNREGISTERED</text><text fill="#eeeeee" stroke="none" font-family="Arial" font-size="24px" font-style="normal" font-weight="normal" text-decoration="none" x="200" y="330">UNREGISTERED</text><text fill="#eeeeee" stroke="none" font-family="Arial" font-size="24px" font-style="normal" font-weight="normal" text-decoration="none" x="400" y="0">UNREGISTERED</text><text fill="#eeeeee" stroke="none" font-family="Arial" font-size="24px" font-style="normal" font-weight="normal" text-decoration="none" x="400" y="30">UNREGISTERED</text><text fill="#eeeeee" stroke="none" font-family="Arial" font-size="24px" font-style="normal" font-weight="normal" text-decoration="none" x="400" y="60">UNREGISTERED</text><text fill="#eeeeee" stroke="none" font-family="Arial" font-size="24px" font-style="normal" font-weight="normal" text-decoration="none" x="400" y="90">UNREGISTERED</text><text fill="#eeeeee" stroke="none" font-family="Arial" font-size="24px" font-style="normal" font-weight="normal" text-decoration="none" x="400" y="120">UNREGISTERED</text><text fill="#eeeeee" stroke="none" font-family="Arial" font-size="24px" font-style="normal" font-weight="normal" text-decoration="none" x="400" y="150">UNREGISTERED</text><text fill="#eeeeee" stroke="none" font-family="Arial" font-size="24px" font-style="normal" font-weight="normal" text-decoration="none" x="400" y="180">UNREGISTERED</text><text fill="#eeeeee" stroke="none" font-family="Arial" font-size="24px" font-style="normal" font-weight="normal" text-decoration="none" x="400" y="210">UNREGISTERED</text><text fill="#eeeeee" stroke="none" font-family="Arial" font-size="24px" font-style="normal" font-weight="normal" text-decoration="none" x="400" y="240">UNREGISTERED</text><text fill="#eeeeee" stroke="none" font-family="Arial" font-size="24px" font-style="normal" font-weight="normal" text-decoration="none" x="400" y="270">UNREGISTERED</text><text fill="#eeeeee" stroke="none" font-family="Arial" font-size="24px" font-style="normal" font-weight="normal" text-decoration="none" x="400" y="300">UNREGISTERED</text><text fill="#eeeeee" stroke="none" font-family="Arial" font-size="24px" font-style="normal" font-weight="normal" text-decoration="none" x="400" y="330">UNREGISTERED</text><text fill="#eeeeee" stroke="none" font-family="Arial" font-size="24px" font-style="normal" font-weight="normal" text-decoration="none" x="600" y="0">UNREGISTERED</text><text fill="#eeeeee" stroke="none" font-family="Arial" font-size="24px" font-style="normal" font-weight="normal" text-decoration="none" x="600" y="30">UNREGISTERED</text><text fill="#eeeeee" stroke="none" font-family="Arial" font-size="24px" font-style="normal" font-weight="normal" text-decoration="none" x="600" y="60">UNREGISTERED</text><text fill="#eeeeee" stroke="none" font-family="Arial" font-size="24px" font-style="normal" font-weight="normal" text-decoration="none" x="600" y="90">UNREGISTERED</text><text fill="#eeeeee" stroke="none" font-family="Arial" font-size="24px" font-style="normal" font-weight="normal" text-decoration="none" x="600" y="120">UNREGISTERED</text><text fill="#eeeeee" stroke="none" font-family="Arial" font-size="24px" font-style="normal" font-weight="normal" text-decoration="none" x="600" y="150">UNREGISTERED</text><text fill="#eeeeee" stroke="none" font-family="Arial" font-size="24px" font-style="normal" font-weight="normal" text-decoration="none" x="600" y="180">UNREGISTERED</text><text fill="#eeeeee" stroke="none" font-family="Arial" font-size="24px" font-style="normal" font-weight="normal" text-decoration="none" x="600" y="210">UNREGISTERED</text><text fill="#eeeeee" stroke="none" font-family="Arial" font-size="24px" font-style="normal" font-weight="normal" text-decoration="none" x="600" y="240">UNREGISTERED</text><text fill="#eeeeee" stroke="none" font-family="Arial" font-size="24px" font-style="normal" font-weight="normal" text-decoration="none" x="600" y="270">UNREGISTERED</text><text fill="#eeeeee" stroke="none" font-family="Arial" font-size="24px" font-style="normal" font-weight="normal" text-decoration="none" x="600" y="300">UNREGISTERED</text><text fill="#eeeeee" stroke="none" font-family="Arial" font-size="24px" font-style="normal" font-weight="normal" text-decoration="none" x="600" y="330">UNREGISTERED</text><g transform="translate(-174,-54) scale(1,1)"><path fill="none" stroke="#000000" d="M 184 64 L 824 64 L 824 400 L 184 400 L 184 64" stroke-miterlimit="10"/></g><g transform="translate(-174,-54) scale(1,1)"><path fill="#ffffff" stroke="none" d="M 184 64 L 184 86 L 289.57177734375 86 L 300.57177734375 75 L 300.57177734375 64 L 184 64"/></g><g transform="translate(-174,-54) scale(1,1)"><path fill="none" stroke="#000000" d="M 184 64 L 184 86 L 289.57177734375 86 L 300.57177734375 75 L 300.57177734375 64 L 184 64 L 184 64" stroke-miterlimit="10"/></g><g transform="translate(-174,-54) scale(1,1)"><g><path fill="none" stroke="none"/><text fill="#000000" stroke="none" font-family="Arial" font-size="13px" font-style="normal" font-weight="normal" text-decoration="none" x="224.6181640625" y="79.7099609375">UserClass</text></g></g><g transform="translate(-174,-54) scale(1,1)"><g><path fill="none" stroke="none"/><text fill="#000000" stroke="none" font-family="Arial" font-size="13px" font-style="normal" font-weight="bold" text-decoration="none" x="187.543212890625" y="79.7099609375">class</text></g></g><g transform="translate(-174,-54) scale(1,1)"><rect fill="#C0C0C0" stroke="none" x="223" y="119" width="416" height="264" opacity="0.2"/></g><g transform="translate(-174,-54) scale(1,1)"><rect fill="#ffffff" stroke="none" x="216" y="112" width="416" height="264"/></g><g transform="translate(-174,-54) scale(1,1)"><path fill="none" stroke="#000000" d="M 216 112 L 632 112 L 632 376 L 216 376 L 216 112 Z Z" stroke-miterlimit="10"/></g><g transform="translate(-174,-54) scale(1,1)"><path fill="none" stroke="#000000" d="M 216 137 L 632 137" stroke-miterlimit="10"/></g><g transform="translate(-174,-54) scale(1,1)"><path fill="none" stroke="#000000" d="M 216 295 L 632 295" stroke-miterlimit="10"/></g><g transform="translate(-174,-54) scale(1,1)"><g><path fill="none" stroke="none"/><text fill="#000000" stroke="none" font-family="Arial" font-size="13px" font-style="normal" font-weight="bold" text-decoration="none" x="409.54638671875" y="129.471923828125">User</text></g></g><g transform="translate(-174,-54) scale(1,1)"><g><path fill="none" stroke="none"/><text fill="#000000" stroke="none" font-family="Arial" font-size="13px" font-style="normal" font-weight="normal" text-decoration="none" x="221" y="152.7099609375">#uid: String {id, readOnly, unique}</text></g></g><g transform="translate(-174,-54) scale(1,1)"><g><path fill="none" stroke="none"/><text fill="#000000" stroke="none" font-family="Arial" font-size="13px" font-style="normal" font-weight="normal" text-decoration="none" x="221" y="167.7099609375">#phoneNo: String {id, readOnly, unique}</text></g></g><g transform="translate(-174,-54) scale(1,1)"><g><path fill="none" stroke="none"/><text fill="#000000" stroke="none" font-family="Arial" font-size="13px" font-style="normal" font-weight="normal" text-decoration="none" x="221" y="182.7099609375">#email: String = null</text></g></g><g transform="translate(-174,-54) scale(1,1)"><g><path fill="none" stroke="none"/><text fill="#000000" stroke="none" font-family="Arial" font-size="13px" font-style="normal" font-weight="normal" text-decoration="none" x="221" y="197.7099609375">#GoogleSSO: String = null {id, readOnly, unique}</text></g></g><g transform="translate(-174,-54) scale(1,1)"><g><path fill="none" stroke="none"/><text fill="#000000" stroke="none" font-family="Arial" font-size="13px" font-style="normal" font-weight="normal" text-decoration="none" x="221" y="212.7099609375">+name: String = null</text></g></g><g transform="translate(-174,-54) scale(1,1)"><g><path fill="none" stroke="none"/><text fill="#000000" stroke="none" font-family="Arial" font-size="13px" font-style="normal" font-weight="normal" text-decoration="none" x="221" y="227.7099609375">+photoUrl: String = null</text></g></g><g transform="translate(-174,-54) scale(1,1)"><g><path fill="none" stroke="none"/><text fill="#000000" stroke="none" font-family="Arial" font-size="13px" font-style="normal" font-weight="normal" text-decoration="none" x="221" y="242.7099609375">+current_gps_location: GeoLocation = 18.5204° N, 73.8567° E</text></g></g><g transform="translate(-174,-54) scale(1,1)"><g><path fill="none" stroke="none"/><text fill="#000000" stroke="none" font-family="Arial" font-size="13px" font-style="normal" font-weight="normal" text-decoration="none" x="221" y="257.7099609375">+saved_locations: SavedLocation = [ ]</text></g></g><g transform="translate(-174,-54) scale(1,1)"><g><path fill="none" stroke="none"/><text fill="#000000" stroke="none" font-family="Arial" font-size="13px" font-style="normal" font-weight="normal" text-decoration="none" x="221" y="272.7099609375">+payment_options: PaymentOption = [ ]</text></g></g><g transform="translate(-174,-54) scale(1,1)"><g><path fill="none" stroke="none"/><text fill="#000000" stroke="none" font-family="Arial" font-size="13px" font-style="normal" font-weight="normal" text-decoration="none" x="221" y="287.7099609375">+vehicles: Vehicle = [ ]</text></g></g><g transform="translate(-174,-54) scale(1,1)"><rect fill="#C0C0C0" stroke="none" x="663" y="119" width="144" height="72" opacity="0.2"/></g><g transform="translate(-174,-54) scale(1,1)"><rect fill="#ffffff" stroke="none" x="656" y="112" width="144" height="72"/></g><g transform="translate(-174,-54) scale(1,1)"><path fill="none" stroke="#000000" d="M 656 112 L 800 112 L 800 184 L 656 184 L 656 112 Z Z" stroke-miterlimit="10"/></g><g transform="translate(-174,-54) scale(1,1)"><path fill="none" stroke="#000000" d="M 656 137 L 800 137" stroke-miterlimit="10"/></g><g transform="translate(-174,-54) scale(1,1)"><path fill="none" stroke="#000000" d="M 656 175 L 800 175" stroke-miterlimit="10"/></g><g transform="translate(-174,-54) scale(1,1)"><g><path fill="none" stroke="none"/><text fill="#000000" stroke="none" font-family="Arial" font-size="13px" font-style="italic" font-weight="bold" text-decoration="none" x="679.96728515625" y="129.32275390625">PaymentOption</text></g></g><g transform="translate(-174,-54) scale(1,1)"><g><path fill="none" stroke="none"/><text fill="#000000" stroke="none" font-family="Arial" font-size="13px" font-style="normal" font-weight="normal" text-decoration="none" x="661" y="152.7099609375">+provider: String</text></g></g><g transform="translate(-174,-54) scale(1,1)"><g><path fill="none" stroke="none"/><text fill="#000000" stroke="none" font-family="Arial" font-size="13px" font-style="normal" font-weight="normal" text-decoration="none" x="661" y="167.7099609375">+credentials: String</text></g></g><g transform="translate(-174,-54) scale(1,1)"><rect fill="#C0C0C0" stroke="none" x="663" y="207" width="144" height="72" opacity="0.2"/></g><g transform="translate(-174,-54) scale(1,1)"><rect fill="#ffffff" stroke="none" x="656" y="200" width="144" height="72"/></g><g transform="translate(-174,-54) scale(1,1)"><path fill="none" stroke="#000000" d="M 656 200 L 800 200 L 800 272 L 656 272 L 656 200 Z Z" stroke-miterlimit="10"/></g><g transform="translate(-174,-54) scale(1,1)"><path fill="none" stroke="#000000" d="M 656 225 L 800 225" stroke-miterlimit="10"/></g><g transform="translate(-174,-54) scale(1,1)"><path fill="none" stroke="#000000" d="M 656 263 L 800 263" stroke-miterlimit="10"/></g><g transform="translate(-174,-54) scale(1,1)"><g><path fill="none" stroke="none"/><text fill="#000000" stroke="none" font-family="Arial" font-size="13px" font-style="italic" font-weight="bold" text-decoration="none" x="681.766845703125" y="217.43701171875">SavedLocation</text></g></g><g transform="translate(-174,-54) scale(1,1)"><g><path fill="none" stroke="none"/><text fill="#000000" stroke="none" font-family="Arial" font-size="13px" font-style="normal" font-weight="normal" text-decoration="none" x="661" y="240.7099609375">+name: String = Home</text></g></g><g transform="translate(-174,-54) scale(1,1)"><g><path fill="none" stroke="none"/><text fill="#000000" stroke="none" font-family="Arial" font-size="13px" font-style="normal" font-weight="normal" text-decoration="none" x="661" y="255.7099609375">+coord: GeoLocation</text></g></g><g transform="translate(-174,-54) scale(1,1)"><rect fill="#C0C0C0" stroke="none" x="663" y="295" width="144" height="87" opacity="0.2"/></g><g transform="translate(-174,-54) scale(1,1)"><rect fill="#ffffff" stroke="none" x="656" y="288" width="144" height="87"/></g><g transform="translate(-174,-54) scale(1,1)"><path fill="none" stroke="#000000" d="M 656 288 L 800 288 L 800 375 L 656 375 L 656 288 Z Z" stroke-miterlimit="10"/></g><g transform="translate(-174,-54) scale(1,1)"><path fill="none" stroke="#000000" d="M 656 313 L 800 313" stroke-miterlimit="10"/></g><g transform="translate(-174,-54) scale(1,1)"><path fill="none" stroke="#000000" d="M 656 366 L 800 366" stroke-miterlimit="10"/></g><g transform="translate(-174,-54) scale(1,1)"><g><path fill="none" stroke="none"/><text fill="#000000" stroke="none" font-family="Arial" font-size="13px" font-style="italic" font-weight="bold" text-decoration="none" x="705.478515625" y="305.4306640625">Vehicle</text></g></g><g transform="translate(-174,-54) scale(1,1)"><g><path fill="none" stroke="none"/><text fill="#000000" stroke="none" font-family="Arial" font-size="13px" font-style="normal" font-weight="normal" text-decoration="none" x="661" y="328.7099609375">+name: String</text></g></g><g transform="translate(-174,-54) scale(1,1)"><g><path fill="none" stroke="none"/><text fill="#000000" stroke="none" font-family="Arial" font-size="13px" font-style="normal" font-weight="normal" text-decoration="none" x="661" y="343.7099609375">+type: String</text></g></g><g transform="translate(-174,-54) scale(1,1)"><g><path fill="none" stroke="none"/><text fill="#000000" stroke="none" font-family="Arial" font-size="13px" font-style="normal" font-weight="normal" text-decoration="none" x="661" y="358.7099609375">+serial_no: String</text></g></g></g></svg>